<svg xmlns="http://www.w3.org/2000/svg"  viewBox="0 0 80 80" width="40px" height="40px"><path fill="red" d="M40,78.5c-6.441,0-12.673-1.888-18.021-5.46l-0.477-0.318L18.688,78.5H9.8l5.533-11.356 l-0.209-0.249C10.208,61.049,7.5,53.628,7.5,46c0-17.92,14.58-32.5,32.5-32.5c0.211,0,0.417,0.015,0.625,0.029 c0.161,0.011,0.322,0.022,0.485,0.027l0.324,0.011L47.313,1.5H56.5v16.537l0.242,0.146C66.609,24.135,72.5,34.534,72.5,46 C72.5,63.92,57.92,78.5,40,78.5z M23.731,68.148l0.345,0.246C28.765,71.734,34.271,73.5,40,73.5c15.164,0,27.5-12.336,27.5-27.5 c0-8.315-3.712-16.099-10.185-21.353L56.5,23.985v27.413l-9-7.2v-24.84L31.841,51.5H47.5v-3.459L56.2,55l-8.7,6.959V58.5H28.431 L23.731,68.148z M38.153,18.593C23.768,19.551,12.5,31.59,12.5,46c0,5.545,1.648,10.894,4.766,15.468l0.485,0.712l21.262-43.644 L38.153,18.593z"/><path fill="#c74343" d="M56,2v15.755v0.565l0.483,0.292C66.199,24.472,72,34.711,72,46c0,17.645-14.355,32-32,32 c-6.342,0-12.478-1.859-17.744-5.375l-0.953-0.636l-0.502,1.03L18.375,78H10.6l5.04-10.345l0.285-0.584l-0.418-0.497 C10.666,60.817,8,53.51,8,46c0-17.645,14.355-32,32-32c0.199,0,0.394,0.014,0.589,0.028c0.167,0.012,0.334,0.023,0.503,0.029 l0.648,0.022l0.284-0.583L47.625,2H56 M31.041,52h1.6H47h1v-1v-1.919L55.399,55L48,60.919V59v-1h-1H28.744h-0.625l-0.274,0.562 l-4.378,8.986l-0.371,0.761l0.69,0.491C28.56,72.202,34.167,74,40,74c15.439,0,28-12.561,28-28c0-8.467-3.78-16.391-10.37-21.741 L56,22.935v2.1v25.323l-8-6.4V21.526V17.19l-1.899,3.898L31.742,50.562L31.041,52 M17.823,63.173l0.755-1.549L39.085,19.53 l0.755-1.55l-1.721,0.115C23.473,19.07,12,31.328,12,46c0,5.646,1.678,11.092,4.852,15.749L17.823,63.173 M57,1H47l-5.874,12.057 C40.749,13.044,40.38,13,40,13C21.775,13,7,27.775,7,46c0,8.083,2.916,15.479,7.741,21.217L9,79h10l2.701-5.544 C26.939,76.954,33.229,79,40,79c18.225,0,33-14.775,33-33c0-11.998-6.424-22.469-16-28.245V1L57,1z M17.679,61.186 C14.729,56.859,13,51.632,13,46c0-14.299,11.124-25.971,25.186-26.908L17.679,61.186L17.679,61.186z M32.641,51L47,21.526v22.912 l10,8V25.035C63.098,29.985,67,37.534,67,46c0,14.912-12.088,27-27,27c-5.833,0-11.22-1.869-15.634-5.014L28.744,59H47v4l10-8 l-10-8v4H32.641L32.641,51z"/><g><path fill="#f78f8f" d="M49.127 64.5L56.5 58.602 56.5 64.5z"/><path fill="#c74343" d="M56,59.642V64h-5.448L56,59.642 M57,57.561l-8.751,7L47.702,65H57V57.561L57,57.561z"/></g></svg>